<?xml version="1.0" encoding="UTF-8"?>
<svg width="100px" height="100px" viewBox="0 0 100 100" version="1.1" xmlns="http://www.w3.org/2000/svg" xmlns:xlink="http://www.w3.org/1999/xlink">
    <title>Artboard</title>
    <g id="Artboard" stroke="none" stroke-width="1" fill="none" fill-rule="evenodd">
        <g id="noun-alien-attack-3653174" transform="translate(4.000000, 0.000000)" fill="#000000" fill-rule="nonzero">
            <g id="Group" transform="translate(0.134386, 0.000000)">
                <path d="M16.6056324,6.05095297 C20.6802342,4.54632088 24.0639923,4.39271154 24.8622344,5.88107549 C25.7302985,7.49962615 23.2647961,10.5454168 19.1417408,13.225848 L27.1787952,22.0868132 L27.29224,22.0194485 C32.3207159,19.0540871 38.0624528,17.1532179 44.2012886,16.6302837 L45.0455906,12.9055354 C42.77261,12.7195562 41.0990721,11.9423033 41.0453727,10.92647 C40.994469,9.9635233 42.4137596,9.06294769 44.4705047,8.61359538 C44.7772127,7.55625417 45.5180317,6.43591692 46.4190801,6.36446637 C47.3679998,6.28921978 48.2108199,7.30959176 48.6353922,8.38098253 C50.7823119,8.6007811 52.3382566,9.35813472 52.3900038,10.3370363 C52.4463938,11.4037678 50.6986012,12.3939591 48.2786824,12.778991 L49.4093551,16.5207367 C56.2602567,16.8132737 62.6634305,18.8183508 68.1943024,22.1150449 L71.5213738,16.8051497 C68.5667731,15.6066884 66.639629,13.970972 66.9834203,12.7823404 C67.3025899,11.6788364 69.4876171,11.2768386 72.3164692,11.6537124 L72.3743819,11.5779052 C73.1910179,10.5415502 74.5589935,9.64150407 75.7297312,9.9525045 C76.9781622,10.2841437 77.6659043,11.7934878 77.7993555,13.1843235 C80.5043712,14.361322 82.2269185,15.8938259 81.9003488,17.0229152 C81.5397729,18.2695784 78.7978161,18.6209138 75.4364881,17.9653713 L75.0808675,27.3027526 L75.297776,27.5060587 C82.8595744,34.705066 87.5662651,44.8295848 87.5662651,56.043956 C87.5662651,77.8925835 69.7008083,95.6043956 47.6626506,95.6043956 C25.6244929,95.6043956 7.75903614,77.8925835 7.75903614,56.043956 C7.75903614,46.669183 11.0482138,38.0560316 16.5448845,31.2768842 L13.3077612,16.2210726 C9.03671929,17.8797985 5.43420712,18.1003351 4.60716225,16.5582669 C3.82199513,15.0942819 5.76410825,12.4626335 9.19325385,9.98984308 L9.19195576,9.96827714 C8.99062463,8.04861945 9.5305069,5.66698121 11.1124906,4.78391725 C12.786512,3.8495878 15.0604395,4.7311989 16.6056324,6.05095297 Z M17.6663349,14.1274819 C17.3216349,14.3255018 16.9682551,14.5201462 16.6069589,14.7105986 C16.0360624,15.0115391 15.4674661,15.2903811 14.9055484,15.5464505 L19.8696234,38.6291029 L18.2055016,38.9940875 L17.2226805,34.4251647 C15.5429067,36.4829821 14.2219782,38.8001701 13.9134413,41.1877665 C12.9559605,48.5971811 11.6801725,45.9759843 17.3593279,56.8790779 C18.1646762,58.4252211 17.3593279,59.2513049 17.3593279,61.6235319 C17.3593279,63.0347521 14.8864082,62.365937 17.3593279,64.4459724 C19.8322477,66.5260078 20.9093468,67.4545805 20.9093468,69.2307692 C20.9093468,71.0069579 23.2381232,75.8851305 23.7767758,78.8103108 C23.7767758,80.5910311 36.7310102,87.6214709 38.0010679,87.1897126 L38.0192771,87.1802198 L37.9868047,87.166626 C37.343694,86.821726 32.2149865,81.2839145 32.7326665,80.3599738 C33.2848586,79.3744371 34.7428034,77.0469805 36.3073934,75.6876663 C37.8719833,74.3283521 37.0590804,63.454367 34.7172407,59.4770327 C32.3467761,55.4510825 24.2892235,56.2582467 20.9093468,57.7378091 C19.1761201,55.4510825 19.1761201,52.5753848 18.3095068,51.227464 C17.2373468,50.149089 18.7970483,45.1527058 20.4917357,44.2163891 C22.3265743,43.2026387 25.7781227,45.4149196 27.6441642,44.5856456 C28.8948089,44.0298556 29.4241528,44.5856456 30.4327386,44.5856456 C30.9698284,44.5856456 31.714955,42.5028227 33.1552568,41.1877665 C34.3036127,40.1392693 35.0820255,39.8585388 35.6100539,39.8585388 C36.1380825,39.8585388 41.5614177,33.6451746 41.2561101,31.5766625 C40.8620476,28.9068193 38.1526526,29.6296733 34.6393932,28.3046446 C32.4783369,27.4896004 34.1876995,25.5955422 34.6393932,25.5955422 C35.0910868,25.5955422 35.4872185,21.8565082 34.6393932,21.4203831 C32.1227772,20.1258246 30.1141671,21.9167253 28.6861194,23.7474429 L34.8765987,30.5727914 L33.6006122,31.6929833 L17.6663349,14.1274819 Z M72.5811676,17.2004675 L64.1413697,30.6706609 L64.1770003,30.691942 L64.1794217,30.6935141 L64.1395181,30.6719834 L64.1267846,30.6944478 L63.1807229,30.1165287 L65.4496867,26.4950603 L65.2636858,26.3934165 C63.0018776,25.180612 60.8771484,24.4013287 59.3149303,24.4013287 C54.3215115,24.4013287 62.7849951,26.9387884 62.0667226,27.9238975 C60.4839067,30.094726 54.7127535,27.0760065 54.7127535,30.7132043 C54.7127535,34.3504021 56.2576725,32.8693271 56.0091948,34.3806059 C55.7175173,36.154632 54.4720272,35.5164109 53.6324431,37.283814 C53.2836514,38.0180533 54.0493182,38.7804153 53.6324431,39.3838908 C52.2011741,41.4558208 48.2643284,40.4352029 49.936155,42.6346249 C51.0507062,44.1009064 53.6778295,43.0173284 57.8175251,39.3838908 C60.1385491,41.3766167 61.7358044,41.8747981 62.6092907,40.8784353 C63.9195202,39.3838908 69.3146522,41.5815184 69.6640546,42.6346249 C69.6640546,43.5310363 67.7492098,44.2619935 63.9195202,44.8274968 C57.3714749,41.8020178 52.7103532,43.1459069 49.936155,48.8591641 C45.7748578,57.4290499 48.5504349,65.1510446 52.8933924,66.1204788 C55.7886975,66.7667684 57.9292101,66.4592713 59.3149303,65.1979879 C62.0578751,63.7581501 63.5927385,65.1454648 63.9195202,69.3599321 C64.1195122,71.939206 65.148095,73.9238615 66.0673866,76.3315614 C67.3631331,79.7252274 66.5217038,79.2027975 68.3035685,83.29972 L68.4657349,83.6714286 C68.7617977,83.5072013 79.4576412,79.2507089 80.9697394,56.9446967 C80.9697394,56.9446967 73.5730266,51.374089 73.5730266,48.8591641 C73.5730266,47.1825475 74.3756183,47.7305835 75.9808017,50.5032721 C78.9914686,53.6515073 81.055916,53.4936953 82.174144,50.0298359 C83.2923719,46.5659767 81.2279245,44.1009064 75.9808017,42.6346249 C78.8186451,41.9630851 79.372773,40.0832741 77.6431853,36.9951923 C77.0647973,35.962513 76.0815358,34.764346 74.8473428,33.5258047 L74.8407278,33.6506922 L74.2698297,33.6285162 C74.262731,33.6430488 74.2558776,33.651152 74.2493646,33.6506922 L74.067759,33.6368186 L74.0733012,33.6192362 L73.7304355,33.6053276 L74.3335549,17.7190082 C74.1165941,17.6644737 73.8979561,17.6059656 73.6780702,17.5434566 C73.302531,17.4366986 72.9363165,17.3219562 72.5811676,17.2004675 Z M50.7123137,28.6365163 C50.5292053,28.8272882 51.6301093,28.9542914 51.7249309,29.2451862 C51.7886928,29.4407954 51.0954557,29.4251209 51.0294806,29.6095242 C50.9843645,29.7356258 51.5421974,29.616427 51.5027486,29.8661959 C51.383614,30.6204907 49.7739252,31.4723049 50.1127937,31.7040829 C50.6963751,32.1032382 52.889622,32.7721467 53.4415688,31.8460955 C53.6185701,31.5491242 53.802652,30.805886 53.1950935,30.5832007 C53.1276969,29.6620943 53.2233013,28.5571123 52.784006,28.1417856 C52.1589949,27.5508762 51.0587429,28.2755879 50.7123137,28.6365163 Z M48.6804899,28.8760649 L47.7846224,29.887574 L48.6804899,31.3437153 L49.5581164,29.887574 L48.6804899,28.8760649 Z M68.0489152,13.0852386 C67.8814171,13.6643503 70.4301261,15.476947 73.983596,16.4871251 C77.5370657,17.4973032 80.6673558,17.2991287 80.834854,16.7200169 C80.9523608,16.3137462 79.7330586,15.3004032 77.7678598,14.3829259 L77.7437412,14.509773 C77.4190597,16.0648314 71.392053,14.2662848 71.6871465,12.9008701 C71.7014819,12.8345399 71.7200176,12.7666478 71.7425035,12.6975531 C69.6668725,12.4708516 68.1635854,12.6887753 68.0489152,13.0852386 Z M47.4596662,12.8831451 C47.2561107,12.9027475 47.0490737,12.9181365 46.8391286,12.9290446 C46.5094487,12.9461738 46.1857356,12.9515709 45.8703066,12.9460367 L45.0492231,16.5670064 C45.9131644,16.5116326 46.7845956,16.4835165 47.6626506,16.4835165 C47.9597169,16.4835165 48.2560251,16.4867347 48.5515415,16.493138 L47.4596662,12.8831451 Z M17.7676861,7.3267345 L17.8497288,7.45142286 C19.0725732,9.39183396 10.8498348,13.6658708 9.78676214,11.9519094 C9.72949658,11.859582 9.67578687,11.7600081 9.62576403,11.6540422 C7.16447606,13.5216524 5.77213941,15.270154 6.05395315,15.7956104 C6.43089444,16.498437 10.3124446,15.9630979 14.6796922,13.9024068 L17.6147617,12.3103647 C21.4256016,9.95713868 23.7737601,7.31183198 23.4154435,6.64373198 C23.1276758,6.10717417 20.7973415,6.2922478 17.7676861,7.3267345 Z M48.8967416,9.33930461 L48.9087194,9.42830868 C49.0578236,10.7472652 44.4536804,10.9522237 44.329687,9.79141286 C44.3230146,9.72894615 44.3194492,9.66356912 44.3188726,9.59576 C42.8253546,9.96636275 41.8374425,10.5389231 41.8557035,10.8843676 C41.8781196,11.3084132 43.4444596,11.9156948 45.5514071,12.0135588 L47.9988251,11.8556311 L48.0085843,11.8873425 C50.1013403,11.573056 51.6021416,10.8041792 51.579673,10.3791387 C51.5610283,10.0264373 50.4742755,9.54697055 48.8967416,9.33930461 Z" id="Shape" transform="translate(46.000000, 50.000000) rotate(5.000000) translate(-46.000000, -50.000000) "></path>
            </g>
        </g>
    </g>
</svg>